<mxfile host="app.diagrams.net" modified="2024-04-14T09:15:44.972Z" agent="Mozilla/5.0 (Windows NT 10.0; Win64; x64) AppleWebKit/537.36 (KHTML, like Gecko) Chrome/121.0.0.0 Safari/537.36" etag="cLDIcAhlbLYgpizyH7PO" version="24.2.2" type="device">
  <diagram name="Strona-1" id="OpuAtiEHKAPO9nbitihU">
    <mxGraphModel dx="1050" dy="530" grid="1" gridSize="10" guides="1" tooltips="1" connect="1" arrows="1" fold="1" page="1" pageScale="1" pageWidth="827" pageHeight="1169" math="0" shadow="0">
      <root>
        <mxCell id="0" />
        <mxCell id="1" parent="0" />
        <mxCell id="2MaOObQheZkrTHU0gO1Y-2" value="" style="whiteSpace=wrap;html=1;aspect=fixed;" vertex="1" parent="1">
          <mxGeometry x="224" y="50" width="380" height="380" as="geometry" />
        </mxCell>
        <mxCell id="2MaOObQheZkrTHU0gO1Y-3" value="" style="rounded=0;whiteSpace=wrap;html=1;" vertex="1" parent="1">
          <mxGeometry x="339" y="140" width="150" height="130" as="geometry" />
        </mxCell>
        <mxCell id="2MaOObQheZkrTHU0gO1Y-4" value="Utwórz konto" style="rounded=0;whiteSpace=wrap;html=1;" vertex="1" parent="1">
          <mxGeometry x="350" y="160" width="120" height="30" as="geometry" />
        </mxCell>
        <mxCell id="2MaOObQheZkrTHU0gO1Y-5" value="Zaloguj się" style="rounded=0;whiteSpace=wrap;html=1;" vertex="1" parent="1">
          <mxGeometry x="350" y="220" width="120" height="30" as="geometry" />
        </mxCell>
        <mxCell id="2MaOObQheZkrTHU0gO1Y-6" value="" style="endArrow=none;html=1;rounded=0;exitX=1.001;exitY=0.12;exitDx=0;exitDy=0;exitPerimeter=0;entryX=0.001;entryY=0.124;entryDx=0;entryDy=0;entryPerimeter=0;" edge="1" parent="1" source="2MaOObQheZkrTHU0gO1Y-2" target="2MaOObQheZkrTHU0gO1Y-2">
          <mxGeometry width="50" height="50" relative="1" as="geometry">
            <mxPoint x="390" y="220" as="sourcePoint" />
            <mxPoint x="440" y="170" as="targetPoint" />
          </mxGeometry>
        </mxCell>
        <mxCell id="2MaOObQheZkrTHU0gO1Y-7" value="Logo" style="rounded=0;whiteSpace=wrap;html=1;" vertex="1" parent="1">
          <mxGeometry x="250" y="60" width="330" height="30" as="geometry" />
        </mxCell>
      </root>
    </mxGraphModel>
  </diagram>
</mxfile>
